<svg width="2593" height="1818" xmlns="http://www.w3.org/2000/svg" xmlns:xlink="http://www.w3.org/1999/xlink" xml:space="preserve" overflow="hidden"><g transform="translate(-1075 -221)"><path d="M3604.31 1191 3604.31 1743.14 3507.38 1743.14 3507.38 1729.39 3597.44 1729.39 3590.56 1736.27 3590.56 1191ZM3514.25 1756.89 3473 1736.27 3514.25 1715.64Z" fill="#7F7F7F"/><path d="M0-6.875 460.264-6.875 460.264 42.4114 446.514 42.4114 446.514 0 453.389 6.875 0 6.875ZM474.014 35.5364 453.389 76.7864 432.764 35.5364Z" fill="#7F7F7F" transform="matrix(-1.83697e-16 -1 -1 1.83697e-16 3549.79 981.389)"/><path d="M0-6.875 549.372-6.875 549.372 54.1274 535.622 54.1274 535.622 0 542.497 6.875 0 6.875ZM563.122 47.2524 542.497 88.5024 521.872 47.2524Z" fill="#7F7F7F" transform="matrix(1.83697e-16 1 1 -1.83697e-16 2456 1193)"/><rect x="1203.5" y="228.5" width="929" height="599" stroke="#000000" stroke-width="6.875" stroke-miterlimit="8" fill="none"/><text font-family="Aptos,Aptos_MSFontService,sans-serif" font-weight="400" font-size="78" transform="matrix(1 0 0 1 1236.23 317)">Compartment 1</text><rect x="1203.5" y="1436.5" width="929" height="599" stroke="#000000" stroke-width="6.875" stroke-miterlimit="8" fill="none"/><text font-family="Aptos,Aptos_MSFontService,sans-serif" font-weight="400" font-size="78" transform="matrix(1 0 0 1 1236.23 1525)">Compartment 2</text><rect x="2544.5" y="228.5" width="929" height="599" stroke="#000000" stroke-width="6.875" stroke-miterlimit="8" fill="none"/><text font-family="Aptos,Aptos_MSFontService,sans-serif" font-weight="400" font-size="78" transform="matrix(1 0 0 1 2577.21 317)">Compartment 1</text><rect x="2544.5" y="1436.5" width="929" height="599" stroke="#000000" stroke-width="6.875" stroke-miterlimit="8" fill="none"/><text font-family="Aptos,Aptos_MSFontService,sans-serif" font-weight="400" font-size="78" transform="matrix(1 0 0 1 2577.21 1525)">Compartment 2</text><text font-family="Aptos,Aptos_MSFontService,sans-serif" font-weight="400" font-size="110" transform="matrix(1 0 0 1 1357.95 973)">One duct run</text><text font-family="Aptos,Aptos_MSFontService,sans-serif" font-weight="400" font-size="110" transform="matrix(1 0 0 1 2705.42 976)">Two duct runs</text><path d="M0 0 433.518 0.000360892" stroke="#7F7F7F" stroke-width="13.75" stroke-miterlimit="8" fill="none" fill-rule="evenodd" transform="matrix(-1 0 0 1 2245.52 1069)"/><path d="M34.3746-6.87498 520.007-6.87464 520.007 6.87536 34.3745 6.87502ZM41.25 20.625 0 0 41.25-20.625Z" fill="#7F7F7F" transform="matrix(-1 0 0 1 1602.01 1117)"/><path d="M1602.5 1117.5C1602.5 1080.5 1632.5 1050.5 1669.5 1050.5 1706.5 1050.5 1736.5 1080.5 1736.5 1117.5 1736.5 1154.5 1706.5 1184.5 1669.5 1184.5 1632.5 1184.5 1602.5 1154.5 1602.5 1117.5Z" stroke="#A6A6A6" stroke-width="6.875" stroke-miterlimit="8" fill="#A6A6A6" fill-rule="evenodd"/><rect x="1670.5" y="1051.5" width="142" height="37.0001" stroke="#A6A6A6" stroke-width="6.875" stroke-miterlimit="8" fill="#A6A6A6"/><path d="M3598 1191.5C3561.27 1191.5 3531.5 1161.5 3531.5 1124.5 3531.5 1087.5 3561.27 1057.5 3598 1057.5 3634.73 1057.5 3664.5 1087.5 3664.5 1124.5 3664.5 1161.5 3634.73 1191.5 3598 1191.5Z" stroke="#A6A6A6" stroke-width="6.875" stroke-miterlimit="8" fill="#A6A6A6" fill-rule="evenodd"/><rect x="3531.5" y="981.5" width="37.0002" height="142" stroke="#A6A6A6" stroke-width="6.875" stroke-miterlimit="8" fill="#A6A6A6"/><path d="M2408.5 984.5C2445.5 984.5 2475.5 1014.5 2475.5 1051.5 2475.5 1088.5 2445.5 1118.5 2408.5 1118.5 2371.5 1118.5 2341.5 1088.5 2341.5 1051.5 2341.5 1014.5 2371.5 984.5 2408.5 984.5Z" stroke="#A6A6A6" stroke-width="6.875" stroke-miterlimit="8" fill="#A6A6A6" fill-rule="evenodd"/><rect x="2437.5" y="1051.5" width="37.0002" height="142" stroke="#A6A6A6" stroke-width="6.875" stroke-miterlimit="8" fill="#A6A6A6"/><path d="M1075.13 1131.58 1075.13 527.125 1171.26 527.125 1171.26 540.875 1082 540.875 1088.88 534 1088.88 1131.58ZM1164.38 513.375 1205.63 534 1164.38 554.625Z" fill="#7F7F7F"/><path d="M0-6.875 627.883-6.875 627.883 85.6513 614.133 85.6513 614.133 0 621.008 6.875 0 6.875ZM641.633 78.7763 621.008 120.026 600.383 78.7763Z" fill="#7F7F7F" transform="matrix(1.83697e-16 1 1 -1.83697e-16 1083 1115)"/><path d="M0-6.875 596.851-6.875 596.851 78.6919 583.101 78.6919 583.101 0 589.976 6.875 0 6.875ZM610.601 71.8169 589.976 113.067 569.351 71.8169Z" fill="#7F7F7F" transform="matrix(-1.83697e-16 -1 -1 1.83697e-16 2245.07 1117.98)"/><path d="M2251.94 1069 2251.94 1742.25 2166.38 1742.25 2166.38 1728.5 2245.07 1728.5 2238.19 1735.37 2238.19 1069ZM2173.25 1756 2132 1735.37 2173.25 1714.75Z" fill="#7F7F7F"/><path d="M0-6.875 143.028-6.875 143.028 421.783 129.278 421.783 129.278 0 136.153 6.875 0 6.875ZM156.778 414.908 136.153 456.158 115.528 414.908Z" fill="#7F7F7F" transform="matrix(-1 1.22465e-16 1.22465e-16 1 2544.15 528)"/></g></svg>